<?xml version="1.0" encoding="UTF-8"?><svg id="Layer_1" xmlns="http://www.w3.org/2000/svg" viewBox="0 0 2887.4 1562.7"><path d="m318.9,753h835.6c59.4,0,92.5,43.4,110.4,95l194,555.5c27.5,79.1-1.6,159.2-101.2,159.2H115.7c-15.6,0-31.3-3.5-45.6-9.4-47.8-19.7-83.9-68.3-65-123l222.1-635.7c7-12.1,35.6-41.6,91.7-41.6h0Z" fill-rule="evenodd"/><path d="m1154.5,809.7H318.9c-31.3,0-46.7,27.3-56.9,56.9L58.8,1448.9c-10.5,29.7,25.6,57.2,56.9,57.2h1241.9c31.3,0,67.2-27.5,56.9-57.2l-203.2-582.2c-10.3-29.7-25.6-56.9-56.9-56.9h0Z" fill="#f8e073" fill-rule="evenodd"/><path d="m262,866.6L58.8,1448.9l-.5,1.6c-.3.3-.3.8-.5,1.3h0l-.3,1.3-.3,1.3v1.3c-.3.5-.3.8-.3,1.3v4h0v1.3l.3,1.3h0l.3,1.3h0l.3,1.1.3,1.3.5,1.3h0l.3,1.3.5,1.1.5,1.3.5,1.3.5,1.1c.5.8.8,1.6,1.3,2.4l.8,1.1c.8,1.3,1.6,2.4,2.4,3.5l1.1,1.1h0l.8,1.1,1.1,1.1h0l.8,1.1c.8.5,1.6,1.3,2.2,1.9h0l1.1,1.1h0l1.3.8,1.1,1.1,1.1.8h0l1.3.8,1.1,1.1,1.3.8,1.3.8h0l1.3.8,1.3.5,1.3.8h0l1.3.8,1.3.5h0l1.3.8,1.3.5h0l1.3.5,1.6.5,1.3.5h0l1.6.5h0l1.3.5,1.3.3h0l1.6.5h0l1.3.3,1.6.3,1.3.3,1.6.3,1.3.3h0l1.6.3h3l1.3.3h1243.6c25.9,0,55-18.9,58.5-42.1H125.7c-25.4,0-53.4-17.8-58.3-40.2l194.5-557.2Z" fill="#f3b305" fill-rule="evenodd"/><path d="m260.9,869.1l-193.5,554.7c4.9,22.4,32.9,40.2,58.3,40.2h1223.3l-194.5-557.7c-4.9-13.8-10.8-27-18.6-37.2H260.9Z" fill="#f3b305" fill-rule="evenodd"/><path d="m348,869.1h776.2c25.4,0,38,23.7,46.4,49.4l165.9,503.7c8.4,25.6-21,49.4-46.7,49.4H182.1c-25.6,0-55-23.7-46.7-49.4l165.9-503.7c8.6-25.6,21-49.4,46.7-49.4h0Z" fill="#f4c91e" fill-rule="evenodd"/><path d="m1737.8,753h835.3c59.4,0,92.5,43.4,110.6,95l193.7,555.5c27.5,79.1-1.3,159.2-100.9,159.2h-1241.9c-15.6,0-31.3-3.5-45.9-9.4-47.5-19.7-83.9-68.3-64.8-123l221.8-635.7c7-12.1,35.9-41.6,92-41.6h0Z" fill-rule="evenodd"/><path d="m2573.2,809.7h-835.3c-31.3,0-46.7,27.3-57.2,56.9l-203.2,582.2c-10.3,29.7,25.6,57.2,57.2,57.2h1241.9c31.3,0,67.2-27.5,56.9-57.2l-203.2-582.2c-10.5-29.7-25.6-56.9-57.2-56.9h0Z" fill="#f8e073" fill-rule="evenodd"/><path d="m1680.6,866.6l-203.2,582.2-.3,1.6c-.3.3-.3.8-.5,1.3h0l-.3,1.3-.3,1.3c0,.5,0,.8-.3,1.3v5.4h0v1.3l.3,1.3h0l.3,1.3h0l.3,1.1.3,1.3.3,1.3h0l.5,1.3.5,1.1.3,1.3.8,1.3.5,1.1c.3.8.8,1.6,1.3,2.4l.8,1.1c.8,1.3,1.6,2.4,2.4,3.5l.8,1.1h0l1.1,1.1.8,1.1h0l1.1,1.1c.8.5,1.3,1.3,2.2,1.9h0l1.1,1.1h0l1.1.8,1.3,1.1,1.1.8h0l1.1.8,1.3,1.1,1.3.8,1.3.8h0l1.1.8,1.3.5,1.3.8h0l1.3.8,1.3.5h0l1.6.8,1.3.5h0l1.3.5,1.3.5,1.6.5h0l1.3.5h0l1.6.5,1.3.3h0l1.6.5h0l1.3.3,1.6.3,1.3.3,1.6.3,1.3.3h0l1.6.3h3l1.3.3h1243.6c25.9,0,55-18.9,58.3-42.1h-1290.5c-25.1,0-53.4-17.8-58-40.2l194.3-557.2Z" fill="#f3b305" fill-rule="evenodd"/><path d="m1679.8,869.1l-193.5,554.7c4.6,22.4,32.9,40.2,58,40.2h1223.3l-194.5-557.7c-4.6-13.8-10.5-27-18.3-37.2h-875Z" fill="#f3b305" fill-rule="evenodd"/><path d="m1766.7,869.1h776.2c25.6,0,38,23.7,46.7,49.4l165.9,503.7c8.4,25.6-21,49.4-46.7,49.4h-1108.1c-25.4,0-54.8-23.7-46.4-49.4l165.9-503.7c8.4-25.6,21-49.4,46.4-49.4h0Z" fill="#f4c91e" fill-rule="evenodd"/><path d="m1028.2,0h835.6c59.4,0,92.5,43.4,110.4,95l194,555.5c27.5,79.1-1.6,159.2-101.2,159.2H825.1c-15.6,0-31.3-3.5-45.6-9.4-47.8-19.7-83.9-68.3-64.8-123L936.5,41.6c7-12.1,35.6-41.6,91.7-41.6h0Z" fill-rule="evenodd"/><path d="m1863.8,56.7h-835.6c-31.3,0-46.7,27.3-56.9,56.9l-203.2,582.2c-10.3,29.7,25.6,57.2,56.9,57.2h1241.9c31.3,0,67.5-27.5,56.9-57.2l-203.2-582.2c-10.3-29.7-25.6-56.9-56.9-56.9h0Z" fill="#f8e073" fill-rule="evenodd"/><path d="m971.3,113.6l-203.2,582.2-.5,1.6c0,.3-.3.8-.3,1.3h0l-.3,1.3-.3,1.3c-.3.5-.3.8-.3,1.3v1.3l-.3,1.3v2.7h0l.3,1.3v1.3h0l.3,1.3h0l.3,1.1.3,1.3.5,1.3h0l.3,1.3.5,1.1.5,1.3.5,1.3.8,1.1c.3.8.8,1.6,1.3,2.4l.5,1.1c.8,1.3,1.6,2.4,2.7,3.5l.8,1.1h0l.8,1.1,1.1,1.1h0l1.1,1.1c.5.5,1.3,1.3,2.2,1.9h0l1.1,1.1h0l1.1.8,1.1,1.1,1.3.8h0l1.1.8,1.3,1.1,1.1.8,1.3.8h0l1.3.8,1.3.5,1.3.8h0l1.3.8,1.3.5h0l1.3.8,1.6.5h0l1.3.5,1.3.5,1.3.5h0l1.6.5h0l1.3.5,1.6.3h0l1.3.5h0l1.6.3,1.3.3,1.6.3,1.3.3,1.6.3h0l1.3.3h3l1.6.3h1243.3c25.9,0,55.3-18.9,58.5-42.1H835c-25.4,0-53.4-17.8-58-40.2L971.3,113.6Z" fill="#f3b305" fill-rule="evenodd"/><path d="m970.5,116.3l-193.5,554.5c4.6,22.4,32.6,40.2,58,40.2h1223.3l-194.5-557.7c-4.9-13.8-10.5-27-18.6-37h-874.7Z" fill="#f3b305" fill-rule="evenodd"/><path d="m1057.4,116h776.2c25.6,0,38,23.7,46.4,49.4l165.9,503.7c8.6,25.6-20.8,49.4-46.4,49.4H891.4c-25.6,0-55-23.7-46.4-49.4l165.9-503.7c8.4-25.6,20.8-49.4,46.4-49.4h0Z" fill="#f4c91e" fill-rule="evenodd"/></svg>